<?xml version="1.0" encoding="utf-8"?>
<!-- Generator: Adobe Illustrator 27.0.0, SVG Export Plug-In . SVG Version: 6.00 Build 0)  -->
<svg version="1.1" id="Capa_1" xmlns="http://www.w3.org/2000/svg" xmlns:xlink="http://www.w3.org/1999/xlink" x="0px" y="0px"
	 viewBox="0 0 203.3 70" style="enable-background:new 0 0 203.3 70;" xml:space="preserve">
<style type="text/css">
	.st0{fill:#004E9A;}
	.st1{fill-rule:evenodd;clip-rule:evenodd;fill:#7AB830;}
</style>
<g>
	<g>
		<g>
			<path class="st0" d="M7.7,67c0,0.8-0.5,1.3-1.3,1.3H3.2c-0.8,0-1.3-0.5-1.3-1.3v-7.4H0V67c0,1.8,1.3,3,3.2,3h3.3
				c1.9,0,3.2-1.3,3.2-3v-7.4H7.7V67z"/>
			<polygon class="st0" points="11.9,59.6 11.9,61.3 15.9,61.3 15.9,70 17.8,70 17.8,61.3 21.8,61.3 21.8,59.6 			"/>
			<polygon class="st0" points="45.6,59.6 41.5,65.3 37.4,59.6 35.5,59.6 35.5,70 37.4,70 37.4,62.5 41,67.5 41.9,67.5 45.6,62.5 
				45.6,70 47.4,70 47.4,59.6 			"/>
			<polygon class="st0" points="24.2,70 32.8,70 32.8,68.3 26,68.3 26,65.6 31.3,65.6 31.3,64 26,64 26,61.3 32.8,61.3 32.8,59.6 
				24.2,59.6 			"/>
		</g>
		<g>
			<rect x="27.2" y="7.5" class="st1" width="12.7" height="12.7"/>
			<path class="st0" d="M7.5,27.2c0,8.9,7.3,16.2,16.2,16.2c1.2,0,2.4-0.1,3.5-0.4l0-22.8H7.5C7.5,22.6,7.5,24.5,7.5,27.2z"/>
			<path class="st0" d="M0,0l0,27.8c0,13.1,10.6,23.7,23.7,23.7s23.7-10.6,23.7-23.7l0-27.8H0z M45.7,27.8c0,12.1-9.8,22-22,22
				s-22-9.8-22-22l0-26h44L45.7,27.8z"/>
		</g>
	</g>
	<rect x="65.9" y="0" class="st0" width="0.6" height="70"/>
	<g>
		<path class="st0" d="M86.8,6.4v6.7c0,1.4,0.8,1.9,2.1,1.9c1.4,0,2.1-0.6,2.1-1.9V6.4h1.7v6.8c0,2.3-1.5,3.3-3.9,3.3
			c-2.4,0-3.9-1-3.9-3.3V6.4H86.8z"/>
		<path class="st0" d="M97.1,9.3v7h-1.7v-10L97,6.3l4.4,7.1v-7h1.7v10l-1.6,0.1L97.1,9.3z"/>
		<path class="st0" d="M106,6.4h1.7v10H106V6.4z"/>
		<path class="st0" d="M116.7,6.3l1.8,0.1l-3.2,10h-2.4l-3.2-10l1.8-0.1l2.6,8.6L116.7,6.3z"/>
		<path class="st0" d="M120.3,16.4v-10h6.4l-0.1,1.6H122v2.7h3.9l-0.1,1.6H122v2.6h4.7l-0.1,1.6H120.3z"/>
		<path class="st0" d="M130.6,16.4h-1.7v-10h3c2.5,0,3.9,1.1,3.9,3.2c0,1.3-0.6,2.3-1.7,2.8l2.2,3.9l-2,0.1l-1.9-3.6
			c-0.3,0-0.5,0-0.6,0c-0.3,0-0.8,0-1.3-0.1V16.4z M130.6,7.9v3.5c0.5,0.1,0.9,0.1,1.2,0.1c1.4,0,2.3-0.6,2.3-1.9
			c0-1.1-0.8-1.7-2.3-1.7H130.6z"/>
		<path class="st0" d="M138.5,14.4c0.9,0.4,1.9,0.5,2.9,0.5c1,0,1.7-0.6,1.6-1.5c-0.1-1.5-5.1-1.2-5.1-4.4c0-1.9,1.3-2.8,3.6-2.8
			c1.1,0,2.1,0.2,3,0.5l-0.3,1.5c-0.9-0.4-1.9-0.5-2.9-0.5c-1,0-1.6,0.6-1.6,1.4c0.1,1.5,5.1,1.2,5.1,4.4c0,1.9-1.3,2.9-3.7,2.9
			c-1,0-2-0.2-3-0.5L138.5,14.4z"/>
		<path class="st0" d="M147,6.4h1.7v10H147V6.4z"/>
		<path class="st0" d="M154.8,6.4c2.9,0,4.6,1.6,4.6,5c0,3.4-1.9,5.2-5,5.2c-1.1,0-2.2-0.1-3.2-0.4V6.4H154.8z M152.9,7.9v6.9
			c0.5,0.1,1.1,0.1,1.6,0.1c1.9,0,3-1.2,3-3.6c0-2.3-0.9-3.5-2.8-3.5H152.9z"/>
		<path class="st0" d="M167.4,14.2h-3.9l-0.7,2.2H161l3.2-10l2.4-0.1l3.3,10.1h-1.8L167.4,14.2z M167,12.7l-1.5-4.8l-1.5,4.8H167z"
			/>
		<path class="st0" d="M175.3,6.4c2.9,0,4.6,1.6,4.6,5c0,3.4-1.9,5.2-5,5.2c-1.1,0-2.2-0.1-3.2-0.4V6.4H175.3z M173.4,7.9v6.9
			c0.5,0.1,1.1,0.1,1.6,0.1c1.9,0,3-1.2,3-3.6c0-2.3-0.9-3.5-2.8-3.5H173.4z"/>
		<path class="st0" d="M87.3,25h-3.1l0.1-1.6h7.8L92,25h-3v8.5h-1.7V25z"/>
		<path class="st0" d="M93.7,33.5v-10h6.4L100,25h-4.6v2.7h3.9l-0.1,1.6h-3.8V32h4.7l-0.1,1.6H93.7z"/>
		<path class="st0" d="M103.8,28.5c0,2.4,0.9,3.6,2.8,3.6c0.6,0,1.4-0.1,2.4-0.4l0.3,1.5c-0.9,0.3-1.8,0.4-2.8,0.4
			c-1.4,0-2.5-0.4-3.3-1.2c-0.8-0.8-1.2-2.1-1.2-3.9c0-1.8,0.4-3.1,1.2-3.9c0.8-0.8,1.9-1.2,3.3-1.2c0.9,0,1.8,0.1,2.8,0.4l-0.3,1.5
			c-0.9-0.3-1.7-0.4-2.4-0.4C104.7,24.9,103.8,26.1,103.8,28.5z"/>
		<path class="st0" d="M113,26.5v7h-1.7v-10l1.6-0.1l4.4,7.1v-7h1.7v10l-1.6,0.1L113,26.5z"/>
		<path class="st0" d="M130.5,28.5c0,3.4-1.5,5.2-4.6,5.2c-3,0-4.6-1.7-4.6-5.2s1.5-5.2,4.6-5.2C129,23.3,130.5,25.1,130.5,28.5z
			 M125.9,32.1c1.9,0,2.8-1.2,2.8-3.6c0-2.6-1-3.6-2.8-3.6c-1.8,0-2.8,1-2.8,3.6C123.2,30.9,124.1,32.1,125.9,32.1z"/>
		<path class="st0" d="M132.9,23.5h1.7V32h4.4l-0.1,1.6h-6.1V23.5z"/>
		<path class="st0" d="M149.5,28.5c0,3.4-1.5,5.2-4.6,5.2c-3,0-4.6-1.7-4.6-5.2s1.5-5.2,4.6-5.2C147.9,23.3,149.5,25.1,149.5,28.5z
			 M144.9,32.1c1.9,0,2.8-1.2,2.8-3.6c0-2.6-1-3.6-2.8-3.6s-2.8,1-2.8,3.6C142.1,30.9,143,32.1,144.9,32.1z M145.1,20.7h2.1l-2.1,2
			h-1.7L145.1,20.7z"/>
		<path class="st0" d="M153.3,28.5c0,2.5,1,3.6,2.9,3.6c0.5,0,1-0.1,1.5-0.2v-2.1h-2l0.1-1.6h3.7V33c-1.2,0.4-2.3,0.6-3.3,0.6
			c-1.4,0-2.6-0.4-3.4-1.2c-0.8-0.8-1.2-2.1-1.2-3.9c0-1.8,0.4-3.1,1.3-3.9c0.9-0.8,2-1.2,3.4-1.2c1,0,1.9,0.1,2.8,0.4l-0.3,1.5
			c-0.9-0.3-1.7-0.4-2.4-0.4C154.3,24.9,153.3,26.1,153.3,28.5z"/>
		<path class="st0" d="M161.8,23.5h1.7v10h-1.7V23.5z"/>
		<path class="st0" d="M167.5,28.5c0,2.4,0.9,3.6,2.8,3.6c0.6,0,1.4-0.1,2.4-0.4l0.3,1.5c-0.9,0.3-1.8,0.4-2.8,0.4
			c-1.4,0-2.5-0.4-3.3-1.2c-0.8-0.8-1.2-2.1-1.2-3.9c0-1.8,0.4-3.1,1.2-3.9c0.8-0.8,1.9-1.2,3.3-1.2c0.9,0,1.8,0.1,2.8,0.4l-0.3,1.5
			c-0.9-0.3-1.7-0.4-2.4-0.4C168.5,24.9,167.5,26.1,167.5,28.5z"/>
		<path class="st0" d="M180.7,31.3h-3.9l-0.7,2.2h-1.8l3.2-10l2.4-0.1l3.3,10.1h-1.8L180.7,31.3z M180.3,29.8l-1.5-4.8l-1.5,4.8
			H180.3z"/>
		<path class="st0" d="M89.7,50.7l-2.5-7.9l-1.1,7.9h-1.7l1.5-10l2.1-0.1l2.4,8l2.4-7.9l2.2-0.1l1.6,10.1h-1.7L94,42.7l-2.4,7.8
			L89.7,50.7z"/>
		<path class="st0" d="M98.6,50.6v-10h6.4l-0.1,1.6h-4.6v2.7h3.9l-0.1,1.6h-3.8v2.6h4.7l-0.1,1.6H98.6z"/>
		<path class="st0" d="M109.2,42.2h-3.1l0.1-1.6h7.8l-0.1,1.6h-3v8.5h-1.7V42.2z"/>
		<path class="st0" d="M117.3,50.6h-1.7v-10h3c2.5,0,3.9,1.1,3.9,3.2c0,1.3-0.6,2.3-1.7,2.8l2.2,3.9l-2,0.1l-1.9-3.6
			c-0.3,0-0.5,0-0.6,0c-0.3,0-0.8,0-1.3-0.1V50.6z M117.3,42.1v3.5c0.5,0.1,0.9,0.1,1.2,0.1c1.4,0,2.3-0.6,2.3-1.9
			c0-1.1-0.8-1.7-2.3-1.7H117.3z"/>
		<path class="st0" d="M133.8,45.6c0,3.4-1.5,5.2-4.6,5.2c-3,0-4.6-1.7-4.6-5.2c0-3.4,1.5-5.2,4.6-5.2
			C132.3,40.5,133.8,42.2,133.8,45.6z M129.2,49.2c1.9,0,2.8-1.2,2.8-3.6c0-2.6-1-3.6-2.8-3.6c-1.8,0-2.8,1-2.8,3.6
			C126.4,48,127.4,49.2,129.2,49.2z"/>
		<path class="st0" d="M137.6,50.6h-1.7v-10h3.1c2.6,0,4,1.1,4,3.4c0,1.1-0.4,2-1.1,2.6c-0.7,0.6-1.7,0.9-2.9,0.9
			c-0.3,0-0.8,0-1.3-0.1V50.6z M137.6,42.2v3.6c0.5,0.1,0.9,0.1,1.2,0.1c1.4,0,2.4-0.6,2.4-1.9c0-1.2-0.8-1.8-2.4-1.8H137.6z"/>
		<path class="st0" d="M153.8,45.6c0,3.4-1.5,5.2-4.6,5.2c-3,0-4.6-1.7-4.6-5.2c0-3.4,1.5-5.2,4.6-5.2
			C152.2,40.5,153.8,42.2,153.8,45.6z M149.2,49.2c1.9,0,2.8-1.2,2.8-3.6c0-2.6-1-3.6-2.8-3.6s-2.8,1-2.8,3.6
			C146.4,48,147.4,49.2,149.2,49.2z"/>
		<path class="st0" d="M155.9,40.6h1.7v8.5h4.4l-0.1,1.6h-6.1V40.6z"/>
		<path class="st0" d="M163.8,40.6h1.7v10h-1.7V40.6z"/>
		<path class="st0" d="M170.1,42.2h-3.1l0.1-1.6h7.8l-0.1,1.6h-3v8.5h-1.7V42.2z"/>
		<path class="st0" d="M181,48.5h-3.9l-0.7,2.2h-1.8l3.2-10l2.4-0.1l3.3,10.1h-1.8L181,48.5z M180.6,46.9l-1.5-4.8l-1.5,4.8H180.6z"
			/>
		<path class="st0" d="M186.8,43.6v7h-1.7v-10l1.6-0.1l4.4,7.1v-7h1.7v10l-1.6,0.1L186.8,43.6z"/>
		<path class="st0" d="M200.8,48.5h-3.9l-0.7,2.2h-1.8l3.2-10l2.4-0.1l3.3,10.1h-1.8L200.8,48.5z M200.4,46.9l-1.5-4.8l-1.5,4.8
			H200.4z"/>
		<path class="st0" d="M87.7,57.6l0.7,0v6.8h-0.6l-0.1-0.5c-0.6,0.4-1.2,0.6-1.6,0.6c-0.9,0-1.5-0.7-1.5-2.2c0-1.5,0.8-2.2,1.8-2.2
			c0.4,0,0.8,0.1,1.3,0.3V57.6z M87.7,60.8c-0.4-0.2-0.8-0.3-1.2-0.3c-0.7,0-1.2,0.5-1.2,1.6c0,1,0.3,1.6,0.9,1.6
			c0.3,0,0.8-0.2,1.4-0.5V60.8z"/>
		<path class="st0" d="M90.2,62.4c0,0.9,0.5,1.4,1.3,1.4c0.3,0,0.7-0.1,1.2-0.2l0.1,0.6c-0.5,0.2-1,0.3-1.4,0.3c-1.2,0-2-0.7-2-2.2
			c0-1.5,0.7-2.2,1.9-2.2c0.6,0,1,0.2,1.3,0.6c0.3,0.4,0.4,1,0.3,1.8H90.2z M90.2,61.8h2.1c0-0.8-0.3-1.3-1-1.3
			C90.6,60.5,90.2,61,90.2,61.8z"/>
		<path class="st0" d="M94.1,57.6l0.7,0v5.7c0,0.5,0.3,0.6,1.1,0.4l0.1,0.6c-0.4,0.1-0.7,0.2-1,0.2c-0.6,0-1-0.4-1-1.1V57.6z"/>
		<path class="st0" d="M99,64.3V58h3.9l-0.1,0.7h-3.1v2.1h2.7l0,0.7h-2.6v2.1h3.2l-0.1,0.7H99z"/>
		<path class="st0" d="M104,63.5c0.4,0.2,0.8,0.3,1.2,0.3c0.5,0,0.8-0.2,0.8-0.7c0-0.3-0.3-0.5-0.8-0.6c-0.6-0.2-1.4-0.5-1.4-1.4
			c0-0.8,0.6-1.2,1.5-1.2c0.4,0,0.9,0.1,1.3,0.3l-0.1,0.6c-0.4-0.2-0.8-0.3-1.2-0.3c-0.5,0-0.8,0.2-0.8,0.6c0,0.8,2.2,0.6,2.2,2
			c0,0.8-0.6,1.2-1.6,1.2c-0.4,0-0.9-0.1-1.3-0.3L104,63.5z"/>
		<path class="st0" d="M108,60.7h-0.7l0.1-0.6h0.7v-1.3l0.7,0V60h1.3l-0.1,0.6h-1.3v2.1c0,0.6,0.2,1,0.7,1c0.2,0,0.4,0,0.7-0.1
			l0.1,0.6c-0.3,0.1-0.6,0.1-0.9,0.1c-0.9,0-1.3-0.5-1.3-1.6V60.7z"/>
		<path class="st0" d="M113.4,61.3c0-0.5-0.2-0.8-0.7-0.8c-0.3,0-0.9,0.1-1.6,0.4l-0.1-0.6c0.7-0.3,1.3-0.4,1.8-0.4
			c0.9,0,1.3,0.4,1.3,1.4v3h-0.5l-0.1-0.5c-0.5,0.4-1,0.6-1.5,0.6c-0.7,0-1.1-0.4-1.1-1.1c0-0.4,0.2-0.8,0.5-1c0.4-0.2,1-0.4,2-0.5
			V61.3z M113.4,63.2v-0.9c-1.5,0.1-1.9,0.4-1.9,0.9c0,0.4,0.3,0.6,0.6,0.6C112.6,63.8,113,63.6,113.4,63.2z"/>
		<path class="st0" d="M118.3,57.6l0.7,0v6.8h-0.6l-0.1-0.5c-0.6,0.4-1.2,0.6-1.6,0.6c-0.9,0-1.5-0.7-1.5-2.2c0-1.5,0.8-2.2,1.8-2.2
			c0.4,0,0.8,0.1,1.3,0.3V57.6z M118.3,60.8c-0.4-0.2-0.8-0.3-1.2-0.3c-0.7,0-1.2,0.5-1.2,1.6c0,1,0.3,1.6,0.9,1.6
			c0.3,0,0.8-0.2,1.4-0.5V60.8z"/>
		<path class="st0" d="M124.1,62.2c0,1.5-0.8,2.2-2,2.2c-1.3,0-2-0.7-2-2.2c0-1.5,0.8-2.2,2-2.2C123.3,59.9,124.1,60.7,124.1,62.2z
			 M123.4,62.2c0-1.1-0.5-1.6-1.3-1.6c-0.8,0-1.3,0.5-1.3,1.6c0,1.1,0.5,1.6,1.3,1.6C122.9,63.8,123.4,63.2,123.4,62.2z"/>
		<path class="st0" d="M130.4,57.6l0.7,0v6.8h-0.6l-0.1-0.5c-0.6,0.4-1.2,0.6-1.6,0.6c-0.9,0-1.5-0.7-1.5-2.2c0-1.5,0.8-2.2,1.8-2.2
			c0.4,0,0.8,0.1,1.3,0.3V57.6z M130.4,60.8c-0.4-0.2-0.8-0.3-1.2-0.3c-0.7,0-1.2,0.5-1.2,1.6c0,1,0.3,1.6,0.9,1.6
			c0.3,0,0.8-0.2,1.4-0.5V60.8z"/>
		<path class="st0" d="M132.9,62.4c0,0.9,0.5,1.4,1.3,1.4c0.3,0,0.7-0.1,1.2-0.2l0.1,0.6c-0.5,0.2-1,0.3-1.4,0.3c-1.2,0-2-0.7-2-2.2
			c0-1.5,0.7-2.2,1.9-2.2c0.6,0,1,0.2,1.3,0.6c0.3,0.4,0.4,1,0.3,1.8H132.9z M132.9,61.8h2.1c0-0.8-0.3-1.3-1-1.3
			C133.4,60.5,133,61,132.9,61.8z"/>
		<path class="st0" d="M139.9,61.2c0,1.8,0.8,2.5,2,2.5c0.5,0,1-0.1,1.5-0.3l0.2,0.7c-0.6,0.2-1.1,0.3-1.7,0.3
			c-1.5,0-2.8-0.9-2.8-3.2c0-2.4,1.3-3.2,2.8-3.2c0.6,0,1.1,0.1,1.7,0.3l-0.2,0.7c-0.6-0.2-1.1-0.3-1.5-0.3
			C140.7,58.6,139.9,59.4,139.9,61.2z"/>
		<path class="st0" d="M145.3,64.3h-0.7v-6.8l0.7,0v3c0.7-0.4,1.2-0.6,1.6-0.6c0.7,0,1.2,0.4,1.2,1.4v3h-0.7v-2.8
			c0-0.6-0.3-0.9-0.7-0.9c-0.3,0-0.8,0.2-1.4,0.5V64.3z"/>
		<path class="st0" d="M150.1,58.5c0.2,0.2,0.2,0.5,0,0.7c-0.2,0.2-0.5,0.2-0.7,0c-0.2-0.2-0.2-0.5,0-0.7
			C149.6,58.4,149.9,58.4,150.1,58.5z M149.4,60l0.7,0v4.3h-0.7V60z"/>
		<path class="st0" d="M151.4,57.6l0.7,0v5.7c0,0.5,0.3,0.6,1.1,0.4l0.1,0.6c-0.4,0.1-0.7,0.2-1,0.2c-0.6,0-1-0.4-1-1.1V57.6z"/>
		<path class="st0" d="M154.5,62.4c0,0.9,0.5,1.4,1.3,1.4c0.3,0,0.7-0.1,1.2-0.2l0.1,0.6c-0.5,0.2-1,0.3-1.4,0.3c-1.2,0-2-0.7-2-2.2
			c0-1.5,0.7-2.2,1.9-2.2c0.6,0,1,0.2,1.3,0.6c0.3,0.4,0.4,1,0.3,1.8H154.5z M154.5,61.8h2.1c0-0.8-0.3-1.3-1-1.3
			C154.9,60.5,154.5,61,154.5,61.8z"/>
	</g>
</g>
</svg>
